<svg width="1200" height="800" viewBox="0 0 1200 800" xmlns="http://www.w3.org/2000/svg">
  <!-- Background -->
  <rect width="1200" height="800" fill="#f8fafc"/>
  
  <!-- Header -->
  <rect width="1200" height="80" fill="#1e293b"/>
  <text x="40" y="50" font-family="Arial, sans-serif" font-size="24" font-weight="bold" fill="white">Project AI Manager</text>
  <text x="1000" y="50" font-family="Arial, sans-serif" font-size="16" fill="#94a3b8">djs1km4@gmail.com</text>
  
  <!-- Sidebar -->
  <rect x="0" y="80" width="250" height="720" fill="#334155"/>
  <text x="20" y="120" font-family="Arial, sans-serif" font-size="16" font-weight="bold" fill="white">Navegación</text>
  
  <!-- Sidebar Menu Items -->
  <rect x="10" y="140" width="230" height="40" rx="5" fill="#475569"/>
  <text x="25" y="165" font-family="Arial, sans-serif" font-size="14" fill="#94a3b8">📊 Dashboard</text>
  
  <rect x="10" y="190" width="230" height="40" rx="5" fill="#3b82f6"/>
  <text x="25" y="215" font-family="Arial, sans-serif" font-size="14" fill="white">📁 Proyectos</text>
  
  <rect x="10" y="240" width="230" height="40" rx="5" fill="#475569"/>
  <text x="25" y="265" font-family="Arial, sans-serif" font-size="14" fill="#94a3b8">✅ Tareas</text>
  
  <rect x="10" y="290" width="230" height="40" rx="5" fill="#475569"/>
  <text x="25" y="315" font-family="Arial, sans-serif" font-size="14" fill="#94a3b8">🤖 AI Assistant</text>
  
  <!-- Main Content Area -->
  <rect x="250" y="80" width="950" height="720" fill="white"/>
  
  <!-- Projects Title -->
  <text x="280" y="130" font-family="Arial, sans-serif" font-size="32" font-weight="bold" fill="#1e293b">Proyectos</text>
  <text x="280" y="160" font-family="Arial, sans-serif" font-size="16" fill="#64748b">Gestiona todos tus proyectos de desarrollo</text>
  
  <!-- Add Project Button -->
  <rect x="1000" y="110" width="150" height="40" rx="5" fill="#3b82f6"/>
  <text x="1040" y="135" font-family="Arial, sans-serif" font-size="14" font-weight="bold" fill="white">+ Nuevo Proyecto</text>
  
  <!-- Search Bar -->
  <rect x="280" y="180" width="400" height="40" rx="5" fill="white" stroke="#e2e8f0" stroke-width="1"/>
  <text x="300" y="205" font-family="Arial, sans-serif" font-size="14" fill="#94a3b8">🔍 Buscar proyectos...</text>
  
  <!-- Filter Buttons -->
  <rect x="700" y="180" width="80" height="40" rx="5" fill="#3b82f6"/>
  <text x="725" y="205" font-family="Arial, sans-serif" font-size="14" fill="white">Todos</text>
  
  <rect x="790" y="180" width="80" height="40" rx="5" fill="white" stroke="#e2e8f0" stroke-width="1"/>
  <text x="810" y="205" font-family="Arial, sans-serif" font-size="14" fill="#64748b">Activos</text>
  
  <rect x="880" y="180" width="100" height="40" rx="5" fill="white" stroke="#e2e8f0" stroke-width="1"/>
  <text x="905" y="205" font-family="Arial, sans-serif" font-size="14" fill="#64748b">Completados</text>
  
  <!-- Project Cards Grid -->
  <!-- Project 1 -->
  <rect x="280" y="250" width="350" height="200" rx="8" fill="white" stroke="#e2e8f0" stroke-width="1"/>
  <rect x="280" y="250" width="350" height="50" rx="8" fill="#3b82f6"/>
  <text x="300" y="280" font-family="Arial, sans-serif" font-size="18" font-weight="bold" fill="white">E-commerce Platform</text>
  <text x="300" y="320" font-family="Arial, sans-serif" font-size="14" fill="#64748b">Plataforma completa de comercio electrónico con</text>
  <text x="300" y="340" font-family="Arial, sans-serif" font-size="14" fill="#64748b">React, Node.js y PostgreSQL</text>
  <rect x="300" y="360" width="60" height="20" rx="10" fill="#10b981"/>
  <text x="315" y="373" font-family="Arial, sans-serif" font-size="12" fill="white">Activo</text>
  <text x="300" y="400" font-family="Arial, sans-serif" font-size="12" fill="#94a3b8">Progreso: 75%</text>
  <rect x="300" y="410" width="200" height="8" rx="4" fill="#e2e8f0"/>
  <rect x="300" y="410" width="150" height="8" rx="4" fill="#3b82f6"/>
  <text x="520" y="430" font-family="Arial, sans-serif" font-size="12" fill="#94a3b8">15 tareas</text>
  
  <!-- Project 2 -->
  <rect x="650" y="250" width="350" height="200" rx="8" fill="white" stroke="#e2e8f0" stroke-width="1"/>
  <rect x="650" y="250" width="350" height="50" rx="8" fill="#10b981"/>
  <text x="670" y="280" font-family="Arial, sans-serif" font-size="18" font-weight="bold" fill="white">Mobile Task Manager</text>
  <text x="670" y="320" font-family="Arial, sans-serif" font-size="14" fill="#64748b">Aplicación móvil para gestión de tareas con</text>
  <text x="670" y="340" font-family="Arial, sans-serif" font-size="14" fill="#64748b">React Native y Firebase</text>
  <rect x="670" y="360" width="80" height="20" rx="10" fill="#f59e0b"/>
  <text x="685" y="373" font-family="Arial, sans-serif" font-size="12" fill="white">En Progreso</text>
  <text x="670" y="400" font-family="Arial, sans-serif" font-size="12" fill="#94a3b8">Progreso: 45%</text>
  <rect x="670" y="410" width="200" height="8" rx="4" fill="#e2e8f0"/>
  <rect x="670" y="410" width="90" height="8" rx="4" fill="#10b981"/>
  <text x="890" y="430" font-family="Arial, sans-serif" font-size="12" fill="#94a3b8">8 tareas</text>
  
  <!-- Project 3 -->
  <rect x="280" y="470" width="350" height="200" rx="8" fill="white" stroke="#e2e8f0" stroke-width="1"/>
  <rect x="280" y="470" width="350" height="50" rx="8" fill="#8b5cf6"/>
  <text x="300" y="500" font-family="Arial, sans-serif" font-size="18" font-weight="bold" fill="white">AI Dashboard</text>
  <text x="300" y="540" font-family="Arial, sans-serif" font-size="14" fill="#64748b">Dashboard con integración de IA para análisis</text>
  <text x="300" y="560" font-family="Arial, sans-serif" font-size="14" fill="#64748b">de datos y reportes automáticos</text>
  <rect x="300" y="580" width="80" height="20" rx="10" fill="#ef4444"/>
  <text x="320" y="593" font-family="Arial, sans-serif" font-size="12" fill="white">Planificado</text>
  <text x="300" y="620" font-family="Arial, sans-serif" font-size="12" fill="#94a3b8">Progreso: 10%</text>
  <rect x="300" y="630" width="200" height="8" rx="4" fill="#e2e8f0"/>
  <rect x="300" y="630" width="20" height="8" rx="4" fill="#8b5cf6"/>
  <text x="520" y="650" font-family="Arial, sans-serif" font-size="12" fill="#94a3b8">3 tareas</text>
  
  <!-- Project 4 -->
  <rect x="650" y="470" width="350" height="200" rx="8" fill="white" stroke="#e2e8f0" stroke-width="1"/>
  <rect x="650" y="470" width="350" height="50" rx="8" fill="#f59e0b"/>
  <text x="670" y="500" font-family="Arial, sans-serif" font-size="18" font-weight="bold" fill="white">API REST Service</text>
  <text x="670" y="540" font-family="Arial, sans-serif" font-size="14" fill="#64748b">Servicio API REST con autenticación JWT</text>
  <text x="670" y="560" font-family="Arial, sans-serif" font-size="14" fill="#64748b">y documentación automática</text>
  <rect x="670" y="580" width="80" height="20" rx="10" fill="#10b981"/>
  <text x="690" y="593" font-family="Arial, sans-serif" font-size="12" fill="white">Completado</text>
  <text x="670" y="620" font-family="Arial, sans-serif" font-size="12" fill="#94a3b8">Progreso: 100%</text>
  <rect x="670" y="630" width="200" height="8" rx="4" fill="#10b981"/>
  <text x="890" y="650" font-family="Arial, sans-serif" font-size="12" fill="#94a3b8">12 tareas</text>
</svg>